<svg version="1.2" baseProfile="tiny-ps" xmlns="http://www.w3.org/2000/svg" viewBox="0 0 170 45" width="170" height="45">
	<title>logo</title>
	<style>
		tspan { white-space:pre }
		.shp0 { fill: #3485ff } 
	</style>
	<path id="^ " fill="#3485ff" aria-label="^"  d="M165.08 14.55L167.91 14.55L163.94 9.83L161.22 9.83L157.24 14.55L160.06 14.55L162.58 11.57Z" />
	<path id="Perguntae " fill="#e8e6ff" aria-label="Perguntae"  d="M51.25 20.08L51.25 16.03L53.39 16.03C54.95 16.03 55.62 16.81 55.62 18.05C55.62 19.29 54.95 20.08 53.39 20.08ZM59.62 18.05C59.62 15.09 57.65 12.85 53.69 12.85L47.32 12.85L47.32 29L51.25 29L51.25 23.2L53.69 23.2C57.81 23.2 59.62 20.72 59.62 18.05ZM67.33 19.13C68.64 19.13 69.74 19.94 69.74 21.34L64.82 21.34C65.05 19.91 66.04 19.13 67.33 19.13ZM73.47 24.75L69.28 24.75C68.96 25.44 68.34 25.99 67.24 25.99C65.97 25.99 64.94 25.2 64.8 23.53L73.7 23.53C73.75 23.13 73.77 22.74 73.77 22.38C73.77 18.47 71.12 15.98 67.37 15.98C63.56 15.98 60.89 18.51 60.89 22.58C60.89 26.65 63.6 29.18 67.37 29.18C70.57 29.18 72.85 27.25 73.47 24.75ZM79.77 23.04C79.77 20.84 80.85 20.19 82.72 20.19L83.8 20.19L83.8 16.03C82.07 16.03 80.67 16.95 79.77 18.3L79.77 16.17L75.84 16.17L75.84 29L79.77 29ZM84.9 22.56C84.9 26.61 87.41 29.18 90.56 29.18C92.44 29.18 93.8 28.29 94.51 27.16L94.51 28.98C94.51 31.14 93.34 31.92 91.85 31.92C90.49 31.92 89.52 31.3 89.27 30.33L85.38 30.33C85.73 33.39 88.21 35.33 92.03 35.33C96.47 35.33 98.45 32.4 98.45 28.98L98.45 16.17L94.51 16.17L94.51 17.98C93.82 16.83 92.44 15.98 90.56 15.98C87.41 15.98 84.9 18.51 84.9 22.56ZM94.51 22.58C94.51 24.63 93.2 25.76 91.71 25.76C90.24 25.76 88.9 24.61 88.9 22.56C88.9 20.51 90.24 19.41 91.71 19.41C93.2 19.41 94.51 20.54 94.51 22.58ZM113.97 16.17L110.04 16.17L110.04 23.13C110.04 24.88 109.07 25.85 107.56 25.85C106.08 25.85 105.09 24.88 105.09 23.13L105.09 16.17L101.18 16.17L101.18 23.66C101.18 27.09 103.19 29.14 106.15 29.14C107.88 29.14 109.26 28.36 110.04 27.25L110.04 29L113.97 29ZM125.66 29L129.57 29L129.57 21.5C129.57 18.05 127.59 16.03 124.62 16.03C122.9 16.03 121.52 16.79 120.73 17.87L120.73 16.17L116.8 16.17L116.8 29L120.73 29L120.73 22.03C120.73 20.28 121.7 19.32 123.2 19.32C124.69 19.32 125.66 20.28 125.66 22.03ZM132.92 24.54C132.92 27.87 134.79 29 137.46 29L139.46 29L139.46 25.66L138.05 25.66C137.18 25.66 136.86 25.34 136.86 24.58L136.86 19.43L139.43 19.43L139.43 16.17L136.86 16.17L136.86 13.04L132.92 13.04L132.92 16.17L131.36 16.17L131.36 19.43L132.92 19.43ZM140.86 22.56C140.86 26.61 143.37 29.18 146.49 29.18C148.4 29.18 149.76 28.31 150.47 27.18L150.47 29L154.41 29L154.41 16.17L150.47 16.17L150.47 17.98C149.78 16.86 148.43 15.98 146.52 15.98C143.37 15.98 140.86 18.51 140.86 22.56ZM150.47 22.58C150.47 24.63 149.16 25.76 147.67 25.76C146.19 25.76 144.86 24.61 144.86 22.56C144.86 20.51 146.19 19.41 147.67 19.41C149.16 19.41 150.47 20.54 150.47 22.58ZM162.92 19.13C164.23 19.13 165.33 19.94 165.33 21.34L160.41 21.34C160.64 19.91 161.63 19.13 162.92 19.13ZM169.06 24.75L164.87 24.75C164.55 25.44 163.93 25.99 162.82 25.99C161.56 25.99 160.52 25.2 160.39 23.53L169.29 23.53C169.33 23.13 169.36 22.74 169.36 22.38C169.36 18.47 166.71 15.98 162.96 15.98C159.14 15.98 156.48 18.51 156.48 22.58C156.48 26.65 159.19 29.18 162.96 29.18C166.16 29.18 168.44 27.25 169.06 24.75Z" />
	<path id="Forma 1" class="shp0" d="M6.3 4.3L34.7 4.3C36.91 4.3 38.7 6.09 38.7 8.3L38.7 36.7C38.7 38.91 36.91 40.7 34.7 40.7L6.3 40.7C4.09 40.7 2.3 38.91 2.3 36.7L2.3 8.3C2.3 6.09 4.09 4.3 6.3 4.3Z" />
	<path id="? " fill="#e8e6ff" aria-label="?"  d="M11.31 16.1L18.53 16.1C18.76 14.73 19.66 13.72 21.18 13.72C22.39 13.72 23.09 14.5 22.86 15.86C22.55 18.12 20.24 18.75 16.89 18.75L14.08 18.75L12.95 26.51L19.7 26.51L20.4 23.66C25.47 23.58 29.49 20.74 30.35 15.9C31.32 10.32 27.89 7.48 22.43 7.48C15.84 7.48 11.98 11.42 11.31 16.1ZM19.62 33.37C20.01 31.15 18.57 29.39 15.88 29.39C13.15 29.39 11.08 31.15 10.69 33.37C10.3 35.6 11.74 37.31 14.47 37.31C17.16 37.31 19.23 35.6 19.62 33.37Z" />
</svg>